<svg width="216" height="24" viewBox="0 0 216 24" fill="none" xmlns="http://www.w3.org/2000/svg">
<g clip-path="url(#clip0_155_18)">
<path opacity="0.07" d="M35 0H3C1.3 0 0 1.3 0 3V21C0 22.7 1.4 24 3 24H35C36.7 24 38 22.7 38 21V3C38 1.3 36.6 0 35 0Z" fill="black"/>
<path d="M35 1C36.1 1 37 1.9 37 3V21C37 22.1 36.1 23 35 23H3C1.9 23 1 22.1 1 21V3C1 1.9 1.9 1 3 1H35Z" fill="white"/>
<path d="M28.3 10.1H28C27.6 11.1 27.3 11.6 27 13.1H28.9C28.6 11.6 28.6 10.9 28.3 10.1ZM31.2 16H29.5C29.4 16 29.4 16 29.3 15.9L29.1 15L29 14.8H26.6C26.5 14.8 26.4 14.8 26.4 15L26.1 15.9C26.1 16 26 16 26 16H23.9L24.1 15.5L27 8.7C27 8.2 27.3 8 27.8 8H29.3C29.4 8 29.5 8 29.5 8.2L30.9 14.7C31 15.1 31.1 15.4 31.1 15.8C31.2 15.9 31.2 15.9 31.2 16ZM17.8 15.7L18.2 13.9C18.3 13.9 18.4 14 18.4 14C19.1 14.3 19.8 14.5 20.5 14.4C20.7 14.4 21 14.3 21.2 14.2C21.7 14 21.7 13.5 21.3 13.1C21.1 12.9 20.8 12.8 20.5 12.6C20.1 12.4 19.7 12.2 19.4 11.9C18.2 10.9 18.6 9.5 19.3 8.8C19.9 8.4 20.2 8 21 8C22.2 8 23.5 8 24.1 8.2H24.2C24.1 8.8 24 9.3 23.8 9.9C23.3 9.7 22.8 9.5 22.3 9.5C22 9.5 21.7 9.5 21.4 9.6C21.2 9.6 21.1 9.7 21 9.8C20.8 10 20.8 10.3 21 10.5L21.5 10.9C21.9 11.1 22.3 11.3 22.6 11.5C23.1 11.8 23.6 12.3 23.7 12.9C23.9 13.8 23.6 14.6 22.8 15.2C22.3 15.6 22.1 15.8 21.4 15.8C20 15.8 18.9 15.9 18 15.6C17.9 15.8 17.9 15.8 17.8 15.7ZM14.3 16C14.4 15.3 14.4 15.3 14.5 15C15 12.8 15.5 10.5 15.9 8.3C16 8.1 16 8 16.2 8H18C17.8 9.2 17.6 10.1 17.3 11.2C17 12.7 16.7 14.2 16.3 15.7C16.3 15.9 16.2 15.9 16 15.9M5 8.2C5 8.1 5.2 8 5.3 8H8.7C9.2 8 9.6 8.3 9.7 8.8L10.6 13.2C10.6 13.3 10.6 13.3 10.7 13.4C10.7 13.3 10.8 13.3 10.8 13.3L12.9 8.2C12.8 8.1 12.9 8 13 8H15.1C15.1 8.1 15.1 8.1 15 8.2L11.9 15.5C11.8 15.7 11.8 15.8 11.7 15.9C11.6 16 11.4 15.9 11.2 15.9H9.7C9.6 15.9 9.5 15.9 9.5 15.7L7.9 9.5C7.7 9.3 7.4 9 7 8.9C6.4 8.6 5.3 8.4 5.1 8.4L5 8.2Z" fill="#142688"/>
</g>
<g clip-path="url(#clip1_155_18)">
<path opacity="0.07" d="M93 0H61C59.3 0 58 1.3 58 3V21C58 22.7 59.4 24 61 24H93C94.7 24 96 22.7 96 21V3C96 1.3 94.6 0 93 0Z" fill="black"/>
<path d="M93 1C94.1 1 95 1.9 95 3V21C95 22.1 94.1 23 93 23H61C59.9 23 59 22.1 59 21V3C59 1.9 59.9 1 61 1H93Z" fill="white"/>
<path d="M73 19C76.866 19 80 15.866 80 12C80 8.13401 76.866 5 73 5C69.134 5 66 8.13401 66 12C66 15.866 69.134 19 73 19Z" fill="#EB001B"/>
<path d="M81 19C84.866 19 88 15.866 88 12C88 8.13401 84.866 5 81 5C77.134 5 74 8.13401 74 12C74 15.866 77.134 19 81 19Z" fill="#F79E1B"/>
<path d="M80 11.9998C80 9.5998 78.8 7.4998 77 6.2998C75.2 7.5998 74 9.6998 74 11.9998C74 14.2998 75.2 16.4998 77 17.6998C78.8 16.4998 80 14.3998 80 11.9998Z" fill="#FF5F00"/>
</g>
<g clip-path="url(#clip2_155_18)">
<path opacity="0.07" d="M213 0H181C179.3 0 178 1.3 178 3V21C178 22.7 179.4 24 181 24H213C214.7 24 216 22.7 216 21V3C216 1.3 214.6 0 213 0Z" fill="black"/>
<path d="M213 1C214.1 1 215 1.9 215 3V21C215 22.1 214.1 23 213 23H181C179.9 23 179 22.1 179 21V3C179 1.9 179.9 1 181 1H213Z" fill="#006FCF"/>
<path d="M200.012 19.9361V11.5151L215 11.5281V13.8541L213.268 15.7061L215 17.5731V19.9481H212.234L210.764 18.3261L209.304 19.9541L200.012 19.9341V19.9361Z" fill="white"/>
<path d="M201.013 19.0119V12.4419H206.585V13.9549H202.817V14.9829H206.495V16.4709H202.817V17.4809H206.585V19.0119H201.013Z" fill="#006FCF"/>
<path d="M206.557 19.0119L209.64 15.7229L206.557 12.4409H208.943L210.827 14.5239L212.717 12.4419H215V12.4929L211.983 15.7229L215 18.9199V19.0129H212.693L210.776 16.9099L208.878 19.0139H206.557V19.0119Z" fill="#006FCF"/>
<path d="M200.71 4.04004H204.324L205.593 6.92104V4.04004H210.053L210.823 6.19904L211.594 4.04004H215V12.461H197L200.71 4.04004Z" fill="white"/>
<path d="M201.395 4.95508L198.479 11.5211H200.479L201.029 10.2061H204.009L204.559 11.5211H206.609L203.705 4.95508H201.395ZM201.645 8.73208L202.52 6.64208L203.393 8.73208H201.645Z" fill="#006FCF"/>
<path d="M206.581 11.5201V4.95312L209.392 4.96312L210.84 9.00012L212.296 4.95412H215V11.5191L213.26 11.5351V7.02513L211.616 11.5191H210.026L208.35 7.01013V11.5201H206.582H206.581Z" fill="#006FCF"/>
</g>
<g clip-path="url(#clip3_155_18)">
<path opacity="0.07" d="M152.921 0H120.079C118.334 0 117 1.3 117 3V21C117 22.7 118.437 24 120.079 24H152.921C154.666 24 156 22.7 156 21V3C156 1.3 154.563 0 152.921 0Z" fill="black"/>
<path d="M152.921 1C154.05 1 154.974 1.9 154.974 3V21C154.974 22.1 154.05 23 152.921 23H120.079C118.95 23 118.026 22.1 118.026 21V3C118.026 1.9 118.95 1 120.079 1H152.921Z" fill="white"/>
<path d="M120.664 7.16004H119.053V12.66H120.664C121.516 12.66 122.132 12.46 122.676 12.03C123.322 11.51 123.702 10.73 123.702 9.92004C123.692 8.29004 122.45 7.16004 120.664 7.16004ZM121.957 11.3C121.608 11.6 121.167 11.74 120.448 11.74H120.151V8.10004H120.448C121.157 8.10004 121.588 8.22004 121.957 8.54004C122.337 8.87004 122.563 9.38004 122.563 9.91004C122.563 10.44 122.337 10.97 121.957 11.3ZM124.205 7.16004H125.303V12.66H124.205V7.16004ZM127.992 9.27004C127.335 9.03004 127.14 8.87004 127.14 8.58004C127.14 8.23004 127.489 7.97004 127.961 7.97004C128.289 7.97004 128.567 8.10004 128.844 8.42004L129.418 7.69004C128.946 7.29004 128.382 7.08004 127.756 7.08004C126.76 7.08004 125.991 7.76004 125.991 8.66004C125.991 9.42004 126.35 9.81004 127.376 10.17C127.807 10.32 128.023 10.42 128.136 10.48C128.351 10.62 128.464 10.82 128.464 11.05C128.464 11.5 128.105 11.83 127.612 11.83C127.089 11.83 126.668 11.57 126.411 11.1L125.703 11.77C126.206 12.5 126.822 12.82 127.653 12.82C128.792 12.82 129.603 12.08 129.603 11.01C129.624 10.12 129.244 9.72004 127.992 9.27004ZM129.962 9.92004C129.962 11.54 131.266 12.79 132.939 12.79C133.411 12.79 133.821 12.7 134.314 12.47V11.21C133.873 11.64 133.483 11.81 132.99 11.81C131.882 11.81 131.091 11.03 131.091 9.91004C131.091 8.85004 131.902 8.02004 132.939 8.02004C133.462 8.02004 133.862 8.20004 134.314 8.64004V7.38004C133.832 7.14004 133.431 7.04004 132.959 7.04004C131.307 7.04004 129.962 8.32004 129.962 9.92004ZM143.058 10.86L141.549 7.16004H140.349L142.74 12.8H143.335L145.768 7.16004H144.577L143.058 10.86ZM146.271 12.66H149.391V11.73H147.369V10.25H149.319V9.32004H147.369V8.10004H149.391V7.16004H146.271V12.66ZM153.752 8.79004C153.752 7.76004 153.024 7.17004 151.751 7.17004H150.119V12.67H151.217V10.46H151.361L152.88 12.67H154.235L152.459 10.35C153.291 10.18 153.752 9.63004 153.752 8.79004ZM151.536 9.70004H151.217V8.03004H151.556C152.244 8.03004 152.613 8.31004 152.613 8.85004C152.613 9.40004 152.244 9.70004 151.536 9.70004Z" fill="#231F20"/>
<path d="M137.691 12.86C138.488 12.86 139.253 12.5512 139.818 12.0016C140.382 11.4519 140.699 10.7064 140.699 9.92905C140.699 9.1517 140.382 8.40619 139.818 7.85652C139.253 7.30685 138.488 6.99805 137.691 6.99805C136.893 6.99805 136.128 7.30685 135.563 7.85652C134.999 8.40619 134.682 9.1517 134.682 9.92905C134.682 10.7064 134.999 11.4519 135.563 12.0016C136.128 12.5512 136.893 12.86 137.691 12.86Z" fill="url(#paint0_linear_155_18)"/>
<path opacity="0.65" d="M137.691 12.86C138.488 12.86 139.253 12.5512 139.818 12.0016C140.382 11.4519 140.699 10.7064 140.699 9.92905C140.699 9.1517 140.382 8.40619 139.818 7.85652C139.253 7.30685 138.488 6.99805 137.691 6.99805C136.893 6.99805 136.128 7.30685 135.563 7.85652C134.999 8.40619 134.682 9.1517 134.682 9.92905C134.682 10.7064 134.999 11.4519 135.563 12.0016C136.128 12.5512 136.893 12.86 137.691 12.86Z" fill="url(#paint1_linear_155_18)"/>
<path d="M154.532 7.50596C154.532 7.40596 154.461 7.35596 154.348 7.35596H154.183V7.83596H154.307V7.64596L154.45 7.83596H154.594L154.43 7.63596C154.491 7.62596 154.532 7.57596 154.532 7.50596ZM154.327 7.57596H154.307V7.44596H154.327C154.389 7.44596 154.419 7.46596 154.419 7.50596C154.419 7.55596 154.389 7.57596 154.327 7.57596Z" fill="#231F20"/>
<path d="M154.368 7.17578C154.132 7.17578 153.937 7.36578 153.937 7.59578C153.937 7.82578 154.132 8.01578 154.368 8.01578C154.604 8.01578 154.799 7.82578 154.799 7.59578C154.799 7.36578 154.604 7.17578 154.368 7.17578ZM154.368 7.94578C154.183 7.94578 154.019 7.79578 154.019 7.59578C154.019 7.40578 154.173 7.24578 154.368 7.24578C154.553 7.24578 154.707 7.40578 154.707 7.59578C154.707 7.78578 154.553 7.94578 154.368 7.94578Z" fill="#231F20"/>
<path d="M154.974 12.9839C154.974 12.9839 144.803 19.8729 126.212 22.9999H152.92C153.462 22.9999 153.981 22.7914 154.366 22.4198C154.75 22.0481 154.968 21.5435 154.973 21.0159L154.997 17.9959L154.974 12.9839Z" fill="#F48120"/>
</g>
<defs>
<linearGradient id="paint0_linear_155_18" x1="139.227" y1="12.275" x2="137.224" y2="9.05685" gradientUnits="userSpaceOnUse">
<stop stop-color="#F89F20"/>
<stop offset="0.25" stop-color="#F79A20"/>
<stop offset="0.533" stop-color="#F68D20"/>
<stop offset="0.62" stop-color="#F58720"/>
<stop offset="0.723" stop-color="#F48120"/>
<stop offset="1" stop-color="#F37521"/>
</linearGradient>
<linearGradient id="paint1_linear_155_18" x1="138.9" y1="12.232" x2="135.985" y2="6.38464" gradientUnits="userSpaceOnUse">
<stop stop-color="#F58720"/>
<stop offset="0.359" stop-color="#E16F27"/>
<stop offset="0.703" stop-color="#D4602C"/>
<stop offset="0.982" stop-color="#D05B2E"/>
</linearGradient>
<clipPath id="clip0_155_18">
<rect width="38" height="24" fill="white"/>
</clipPath>
<clipPath id="clip1_155_18">
<rect width="38" height="24" fill="white" transform="translate(58)"/>
</clipPath>
<clipPath id="clip2_155_18">
<rect width="38" height="24" fill="white" transform="translate(178)"/>
</clipPath>
<clipPath id="clip3_155_18">
<rect width="39" height="24" fill="white" transform="translate(117)"/>
</clipPath>
</defs>
</svg>
